<svg xmlns="http://www.w3.org/2000/svg" viewBox="0 0 1024 1024">
  <defs>
    <linearGradient id="bg" x1="0" x2="1" y1="0" y2="1">
      <stop offset="0%" stop-color="#d8ccff"/>
      <stop offset="52%" stop-color="#b8e7ff"/>
      <stop offset="100%" stop-color="#ffd4ef"/>
    </linearGradient>
  </defs>
  <rect width="1024" height="1024" fill="url(#bg)"/>
  <circle cx="512" cy="390" r="150" fill="#fff8" />
  <rect x="306" y="532" width="412" height="256" rx="128" fill="#fff7"/>
  <path d="M296 302l54 26 42-42 38 54 64-20 18 66 66 18-20 64 54 38-42 42 26 54-62 8-8 62-54-26-42 42-38-54-64 20-18-66-66-18 20-64-54-38 42-42z" fill="#7c3aed55"/>
  <text x="512" y="878" text-anchor="middle" font-size="58" font-family="Arial, sans-serif" fill="#4338ca">Starheart</text>
</svg>
